<?xml version="1.0" encoding="utf-8"?>
<svg version="1.1" id="Calque_1" xmlns="http://www.w3.org/2000/svg" xmlns:xlink="http://www.w3.org/1999/xlink" x="0px" y="0px"
	 viewBox="0 0 420 420" style="enable-background:new 0 0 420 420;" xml:space="preserve">
<style type="text/css">
	.st0{fill:none;stroke:#000000;stroke-width:5;stroke-linejoin:bevel;stroke-miterlimit:10;}
	.st1{fill:none;stroke:#000000;stroke-width:5;stroke-miterlimit:10;}
</style>
<polygon class="st0" points="19,374 209,374 209,173.57 114.5,37.5 19,173.57 "/>
<line class="st0" x1="20" y1="374" x2="190" y2="374"/>
<path class="st0" d="M105,37"/>
<line class="st1" x1="19" y1="174.5" x2="328.5" y2="173.5"/>
<line class="st1" x1="113.5" y1="38.62" x2="234.5" y2="38.62"/>
<line class="st1" x1="343" y1="344.25" x2="401.5" y2="344.25"/>
<line class="st1" x1="351.57" y1="323.57" x2="392.93" y2="364.93"/>
<line class="st1" x1="392.93" y1="323.57" x2="351.57" y2="364.93"/>
<line class="st1" x1="372.25" y1="315" x2="372.25" y2="373.5"/>
<polygon class="st0" points="59,374 249,374 249,173.57 154.5,37.5 59,173.57 "/>
<polygon class="st0" points="99,374 289,374 289,173.57 194.5,37.5 99,173.57 "/>
<polygon class="st0" points="139,374 329,374 329,173.57 234.5,37.5 139,173.57 "/>
</svg>
